PathFileType	4	(X/Y/Z)	 s10c0103.trc
DataRate	CameraRate	NumFrames	NumMarkers	Units	OrigDataRate	OrigDataStartFrame	OrigNumFrames
200	200	5	50	mm	200	1251	2000
Frame#	Time	racr			lacr			c7			jug			rlel			rdr			llel			ldr			s2			lic			ric			lasi			rasi			rpsi			lpsi			rgt			lgt			rth1			rth2			rth3			rth4			rlfc			rmfc			rsh1			rsh2			rsh3			rsh4			rlmal			rmmal			rcal			rtoe			rmt5			lth1			lth2			lth4			lth3			llfc			lmfc			llmal			lmmal			lcal			lmt5			lsh1			lsh2			lsh3			lsh4			ltoe			SBIKE			LBIKE			RBIKE			
		X1	Y1	Z1	X2	Y2	Z2	X3	Y3	Z3	X4	Y4	Z4	X5	Y5	Z5	X6	Y6	Z6	X7	Y7	Z7	X8	Y8	Z8	X9	Y9	Z9	X10	Y10	Z10	X11	Y11	Z11	X12	Y12	Z12	X13	Y13	Z13	X14	Y14	Z14	X15	Y15	Z15	X16	Y16	Z16	X17	Y17	Z17	X18	Y18	Z18	X19	Y19	Z19	X20	Y20	Z20	X21	Y21	Z21	X22	Y22	Z22	X23	Y23	Z23	X24	Y24	Z24	X25	Y25	Z25	X26	Y26	Z26	X27	Y27	Z27	X28	Y28	Z28	X29	Y29	Z29	X30	Y30	Z30	X31	Y31	Z31	X32	Y32	Z32	X33	Y33	Z33	X34	Y34	Z34	X35	Y35	Z35	X36	Y36	Z36	X37	Y37	Z37	X38	Y38	Z38	X39	Y39	Z39	X40	Y40	Z40	X41	Y41	Z41	X42	Y42	Z42	X43	Y43	Z43	X44	Y44	Z44	X45	Y45	Z45	X46	Y46	Z46	X47	Y47	Z47	X48	Y48	Z48	X49	Y49	Z49	X50	Y50	Z50	
1251	6.2550	453.096950	1295.839537	-59.667034	452.023055	1299.750852	-348.287461	391.157099	1338.363489	-209.925787	429.710957	1202.000164	-222.371512	501.440846	1046.261933	44.037103	644.650664	876.059122	-12.011120	511.676735	1039.722187	-447.901157	659.657763	884.408261	-370.895766	-109.814692	1077.002552	-209.734564	55.422545	1104.794721	-361.695772	63.508002	1109.340900	-68.283114	92.499775	1020.933886	-325.004338	73.762526	1023.980997	-71.293801	-74.715250	1138.197053	-149.995901	-68.049594	1145.837604	-266.195036	-34.930007	981.189600	-19.255598	-8.552832	963.772811	-404.733534	38.607648	852.703343	-1.850408	101.902111	791.759253	-17.281139	124.043173	710.236283	-31.941443	133.105937	812.812538	-21.878090	192.788393	625.586601	-50.303440	173.272491	611.910900	-164.417827	153.926869	516.964877	-16.661284	174.466315	430.972946	-27.675733	150.232285	348.106095	-31.149309	204.210672	433.106583	-52.221991	144.827469	243.596359	-44.194572	171.314220	262.961878	-124.634594	98.990375	220.925610	-94.049665	341.296006	219.177869	-82.306102	259.402002	183.249030	-23.266047	114.866045	921.007404	-403.643899	199.180732	928.643449	-382.671119	202.855632	962.238006	-367.187445	279.224592	890.680734	-373.348940	375.573737	844.291441	-340.604017	356.518561	821.051881	-219.922790	99.213810	591.824651	-371.454228	105.287686	576.345035	-291.346801	44.774854	611.833975	-331.165579	98.788805	442.860224	-393.585781	287.778078	763.548902	-384.523242	244.709612	688.445097	-372.444444	167.889100	643.117149	-378.625955	263.087657	672.020321	-343.465195	163.805227	387.552709	-333.570047	-204.234049	832.392581	-223.860253	-78.169665	81.744648	-423.510551	-102.527543	80.372376	-24.328339	
1252	6.2600	454.042243	1296.522491	-63.224985	450.583997	1299.110260	-351.591278	390.795685	1338.270396	-212.369096	429.442213	1201.928605	-224.744453	502.877724	1047.302540	42.643176	644.854208	875.997215	-11.878658	511.074211	1038.652441	-449.403137	659.343488	884.781333	-371.261232	-108.121604	1077.315023	-203.932930	54.642297	1106.330920	-361.138524	64.737170	1109.194389	-67.490916	92.992959	1022.881628	-324.721979	74.555232	1024.164057	-71.850253	-72.980289	1138.295419	-147.709957	-68.862323	1146.144317	-263.518062	-33.509811	981.025432	-19.393179	-8.284790	966.501866	-403.899939	36.921679	852.292410	-1.402962	98.822996	789.610918	-16.429483	118.917620	707.450916	-30.284865	130.469513	809.900550	-21.568266	183.902952	621.084075	-49.465070	165.496472	607.257075	-163.604796	146.102564	512.805833	-16.248145	167.530666	426.968034	-27.319702	143.560419	343.988088	-30.903697	196.615794	429.326374	-52.425944	137.575613	238.934723	-44.323563	163.782843	257.832418	-124.506356	91.535892	217.331407	-94.492499	333.800270	211.243344	-82.774718	251.303598	176.739346	-23.737346	116.142282	926.326706	-403.635348	200.423218	936.755945	-383.149810	202.928025	970.005766	-365.824301	281.144135	900.615309	-373.028316	380.522093	857.618694	-340.425235	363.341512	833.278652	-217.702901	110.729156	598.479381	-371.383053	117.034552	582.590659	-290.775334	56.889213	618.789249	-330.624096	107.913352	448.990442	-392.688207	295.803023	774.412058	-383.293424	253.726448	698.049652	-371.186246	178.390362	651.780804	-377.863211	272.604871	682.452161	-341.937491	172.153385	392.508635	-333.022861	-203.972770	831.492018	-225.482292	-78.196634	81.778242	-423.550300	-102.577630	80.386340	-24.377086	
1253	6.2650	454.852969	1296.997179	-66.973425	449.048533	1298.354490	-354.862465	390.608712	1338.217822	-214.604469	428.765055	1201.740004	-226.982772	504.176637	1048.176224	41.326967	644.904906	875.554824	-11.704718	510.646424	1037.593726	-450.778890	659.053060	885.152153	-371.707735	-107.907169	1076.214770	-206.047353	53.946142	1108.265105	-360.543897	65.446513	1109.798352	-65.844215	93.886368	1026.208378	-325.809112	75.435585	1024.480613	-72.862667	-71.423976	1138.638909	-145.787339	-68.890202	1146.212576	-261.676077	-32.238199	981.041971	-19.815963	-8.240399	970.132379	-403.277896	35.469680	852.246234	-0.575614	95.692373	788.053991	-15.348688	113.819538	705.219748	-28.270049	127.818637	807.430413	-21.172538	175.273190	617.381783	-48.048833	157.698047	603.319177	-162.509403	137.900857	509.595221	-15.628182	159.761911	423.847516	-26.762174	136.377210	340.564660	-30.301783	188.781136	426.249291	-51.989380	130.110661	235.253969	-44.310975	156.178248	253.776562	-124.095614	83.734503	215.157476	-94.891502	325.951956	203.936911	-83.102915	242.675618	170.919276	-24.224374	117.205954	932.099610	-403.908517	200.828497	944.527292	-382.728911	202.551446	977.270213	-365.029789	282.676948	910.318981	-372.341504	385.103646	870.332868	-339.391643	369.362923	846.712232	-216.216601	122.604214	605.420107	-372.572638	128.891666	589.132725	-290.405881	68.989079	625.292528	-330.153291	117.811613	454.726392	-391.951149	303.542728	785.447755	-381.972970	263.071195	708.302474	-370.035633	188.956269	660.168560	-377.102461	282.990638	693.983853	-342.015817	180.962121	397.167469	-332.592449	-204.068982	832.600929	-224.354888	-78.199571	81.823409	-423.596984	-102.611801	80.384925	-24.405874	
1254	6.2700	455.620886	1297.473354	-70.603456	447.392378	1297.448072	-358.178524	390.599105	1338.109249	-216.789572	428.007061	1201.407734	-228.963330	505.227665	1048.909911	40.111658	645.066181	875.472963	-11.719723	509.800649	1036.605966	-452.644583	658.787803	885.500419	-372.075897	-106.155617	1077.827445	-202.659052	53.448234	1110.530078	-359.962829	67.696555	1109.646125	-65.702445	93.964461	1028.564731	-325.674943	76.334129	1025.002268	-74.031852	-70.039056	1139.211897	-144.206662	-68.776126	1146.537919	-259.845183	-31.438722	982.347235	-19.404185	-8.431785	974.416411	-402.852123	33.968114	852.634398	0.366621	92.902659	786.816474	-14.142957	108.647736	703.621326	-26.352775	125.163242	805.652105	-20.534329	166.994760	614.216353	-46.393949	151.478160	599.509018	-161.548455	129.730875	506.833980	-15.019900	151.720777	421.208971	-26.061806	128.609882	338.025478	-29.525432	180.892638	423.710387	-51.161557	122.491146	232.338438	-44.371091	148.671610	250.177006	-123.784700	75.949300	213.155898	-95.203789	317.820851	197.106623	-83.462471	233.828755	165.678066	-24.672638	118.029789	937.846619	-404.324439	201.147079	951.978440	-382.199281	202.057048	984.618554	-364.336864	283.802614	919.494698	-371.895661	389.243844	882.472964	-337.198671	374.611020	860.224240	-213.950594	133.192198	611.310564	-371.915050	138.256171	594.869315	-291.064571	80.008700	630.918524	-329.920012	127.956968	460.034007	-391.157451	310.833503	796.775618	-380.832519	272.898435	718.961033	-369.110233	199.480623	667.914260	-375.315803	291.574879	703.897361	-339.344103	190.381702	401.966919	-331.981467	-205.320962	832.217936	-223.172429	-78.244245	81.805358	-423.588918	-102.615836	80.378322	-24.428742	
1255	6.2750	456.376952	1297.751077	-74.082678	445.893864	1296.653723	-361.413349	390.699793	1338.100314	-218.803733	427.136264	1201.133058	-230.917812	506.149011	1049.515734	39.022941	645.190565	875.399355	-11.790880	508.717605	1035.653410	-454.944798	658.533507	885.770356	-372.333154	-106.547452	1078.651759	-201.370424	53.239592	1112.807061	-359.279320	69.488824	1109.637090	-65.673895	93.824512	1031.003511	-325.555112	77.372144	1025.618965	-75.033580	-68.818270	1139.998753	-142.946542	-68.438686	1147.049172	-258.324114	-31.027748	982.926470	-19.597114	-8.914184	979.053432	-402.672052	32.332868	853.275387	1.206302	89.617418	786.332108	-13.034593	103.723615	702.593023	-24.641075	122.465923	804.221577	-19.759969	159.297072	611.777530	-44.717866	145.153062	596.702259	-160.372369	121.678784	504.808277	-14.238868	143.218490	419.022136	-25.552798	120.109483	335.858036	-28.978280	173.021048	421.638417	-49.861726	114.699241	229.989725	-44.438455	140.805351	247.484454	-123.248514	67.876473	212.063193	-95.572074	309.406090	190.838360	-83.850608	224.770935	161.138668	-25.157421	118.640555	943.524076	-404.411501	201.296858	958.971498	-381.784104	201.462161	991.650888	-363.721622	284.569361	928.404002	-371.629731	392.728849	895.081784	-336.079841	379.448719	873.753693	-212.009607	143.197143	617.454053	-372.139727	151.533247	602.477951	-290.082559	89.796947	635.822790	-329.669948	138.194122	464.961011	-390.352188	317.596010	808.105844	-379.558194	281.765355	728.910997	-368.247727	209.869969	676.805246	-375.517782	300.809494	714.776705	-338.792721	200.412460	406.891084	-331.461745	-204.310209	832.253706	-223.630989	-78.211367	81.833754	-423.571724	-102.606996	80.409758	-24.423465	
